<?xml version="1.0" encoding="utf-8"?>
<!-- Generator: Adobe Illustrator 27.5.0, SVG Export Plug-In . SVG Version: 6.00 Build 0)  -->
<svg version="1.1" id="Calque_1" xmlns="http://www.w3.org/2000/svg" xmlns:xlink="http://www.w3.org/1999/xlink" x="0px" y="0px"
	 viewBox="0 0 211.3 186.4" style="enable-background:new 0 0 211.3 186.4;" xml:space="preserve">
<g>
	<path d="M142.4,34.5c0,0-9.2-20.6-14.2-20.6H35.7C30.7,13.8,21,34.5,21,34.5c-5.1,0-9.2,4.1-9.2,9.2v1.9c0,5.1,4.1,9.2,9.2,9.2
		h121.4c5.1,0,9.2-4.1,9.2-9.2v-1.9C151.6,38.6,147.5,34.5,142.4,34.5z"/>
	<path d="M34.6,150.3v3.3c0,11.5,9.4,20.9,20.9,20.9h52c11.5,0,20.9-9.4,20.9-20.9v-0.8h0.3l8.3-89H26.5L34.6,150.3z M64.2,93.6
		h35.7c6,0,14.3,4.8,14.3,10.8l-3.5,29.1c0,6-4.8,10.8-10.8,10.8H64.2c-6,0-10.8-4.8-10.8-10.8l-2.9-29.7
		C50.5,97.9,58.3,93.6,64.2,93.6z"/>
</g>
<path d="M198.7,73.9H184V59.1c0-3.8-3.1-6.8-6.8-6.8c-3.8,0-6.8,3.1-6.8,6.8v14.8h-14.8c-3.8,0-6.8,3.1-6.8,6.8s3.1,6.8,6.8,6.8
	h14.8v14.8c0,3.8,3.1,6.8,6.8,6.8c3.8,0,6.8-3.1,6.8-6.8V87.5h14.8c3.8,0,6.8-3.1,6.8-6.8S202.5,73.9,198.7,73.9z"/>
</svg>
